<svg width="100" height="100" viewBox="0 0 100 100" fill="none" xmlns="http://www.w3.org/2000/svg">
<path d="M27.75 9.83999C8.66 16.66 5.55 17.79 5.52 17.97C5.49 18.14 12.11 75.91 12.25 76.76C12.3 77.06 13 77.46 31.19 87.54C41.58 93.29 50.17 98 50.27 98C50.37 98 58.93 93.3 69.3 87.55C84.15 79.33 88.16 77.06 88.22 76.88C88.38 76.33 95.04 17.9 94.95 17.81C94.77 17.64 50.49 1.89999 50.22 1.90999C50.07 1.90999 39.96 5.47999 27.75 9.83999ZM64.24 43.9C71.85 61.03 78.05 75.08 78.01 75.13C77.97 75.17 75.63 75.19 72.8 75.18L67.67 75.15L64.87 68.17L62.08 61.2H50.21H38.35L35.61 68.08C34.1 71.86 32.83 75.01 32.77 75.07C32.63 75.25 22.4 75.26 22.4 75.08C22.4 75.02 28.57 61.12 36.12 44.21C43.66 27.29 49.92 13.25 50.03 13.01C50.13 12.77 50.26 12.62 50.3 12.66C50.35 12.71 56.62 26.77 64.24 43.9Z" fill="#818184"/>
<path d="M46.2 42.7C43.99 48.04 42.19 52.43 42.22 52.45C42.25 52.48 45.89 52.49 50.33 52.48L58.39 52.45L54.37 42.78C52.16 37.47 50.32 33.09 50.29 33.06C50.26 33.03 48.42 37.37 46.2 42.7Z" fill="#818184"/>
</svg>
