<svg width="100" height="100" viewBox="0 0 100 100" fill="none" xmlns="http://www.w3.org/2000/svg">
<g clip-path="url(#clip0_384_6)">
<path d="M90.2333 0H9.76667C4.375 0 0 4.375 0 9.76667V90.2333C0 95.625 4.375 100 9.76667 100H90.2333C95.625 100 100 95.625 100 90.2333V9.76667C100 4.375 95.625 0 90.2333 0ZM58.0083 55.4833H45.4667V91.2083H35.5292V55.4833H23.0458V47.4583H58.0083V55.4833ZM90.4083 84.875C88.4625 88.3542 84.8875 90.3125 81.0833 91.125C76.6667 92.0667 71.9708 92.0167 67.5417 91.1875C65.3708 90.7792 63.4917 90.1708 61.9042 89.3542V79.575C63.6792 81.0625 65.6042 82.1792 67.6833 82.9208C69.7625 83.6667 71.8625 84.0375 73.9792 84.0375C75.8542 84.0375 77.9417 83.8042 79.5583 82.7708C80.6667 82.0625 81.4083 80.9458 81.4083 79.6083C81.4083 77.7875 80.0917 76.4125 78.6708 75.4542C76.5917 74.0542 74.2042 73.1417 71.9 72.1833C68.475 70.7583 65.925 69.0167 64.2417 66.9583C61.3167 63.3792 60.8375 57.6625 63.0958 53.6208C65.025 50.1708 68.5792 48.1375 72.3292 47.2333C76.4167 46.25 80.8542 46.25 85 46.8958C86.7625 47.1708 88.3875 47.5917 89.875 48.1625V57.3C89.1417 56.7917 88.3417 56.3417 87.475 55.9583C85.7667 55.1958 83.9208 54.6792 82.0667 54.4292C80.2125 54.1792 78.2583 54.1375 76.4292 54.5667C74.9875 54.9 73.4708 55.5708 72.6375 56.8583C72.2917 57.4 72.1167 58.0042 72.1167 58.675C72.1167 59.4083 72.3083 60.0667 72.6958 60.6458C73.675 62.1167 75.4 63.0625 76.9458 63.825C79.6625 65.1583 82.5125 66.1583 85.1208 67.7042C87.6542 69.2 89.9042 71.2833 91.0042 74.0583C91.5333 75.3917 91.8 76.9458 91.8 78.7167C91.7958 81.1625 91.3333 83.2167 90.4083 84.875Z" fill="#818184"/>
</g>
<defs>
<clipPath id="clip0_384_6">
<rect width="100" height="100" fill="white"/>
</clipPath>
</defs>
</svg>
